<svg xmlns="http://www.w3.org/2000/svg" viewBox="0 0 200 200">
    <rect width="200" height="200" fill="#0A0A14" rx="24"/>

    <g stroke="#FFFFFF" stroke-width="1.5" opacity="0.25">
        <line x1="100" y1="55" x2="100" y2="30"/>
        <line x1="100" y1="95" x2="100" y2="120"/>
        <line x1="72" y1="75" x2="42" y2="75"/>
        <line x1="128" y1="75" x2="158" y2="75"/>
        <line x1="80" y1="67" x2="58" y2="45"/>
        <line x1="120" y1="67" x2="142" y2="45"/>
        <line x1="80" y1="83" x2="58" y2="105"/>
        <line x1="120" y1="83" x2="142" y2="105"/>
    </g>

    <circle cx="100" cy="75" r="28" fill="#FFFFFF" opacity="0.9"/>
    <circle cx="100" cy="75" r="17" fill="#0A0A14"/>
    <circle cx="100" cy="75" r="8" fill="#FFFFFF"/>

    <circle cx="100" cy="30" r="10" fill="#FFFFFF" opacity="0.75"/>
    <circle cx="100" cy="120" r="10" fill="#FFFFFF" opacity="0.75"/>
    <circle cx="42" cy="75" r="10" fill="#FFFFFF" opacity="0.75"/>
    <circle cx="158" cy="75" r="10" fill="#FFFFFF" opacity="0.75"/>

    <circle cx="58" cy="45" r="6" fill="#FFFFFF" opacity="0.4"/>
    <circle cx="142" cy="45" r="6" fill="#FFFFFF" opacity="0.4"/>
    <circle cx="58" cy="105" r="6" fill="#FFFFFF" opacity="0.4"/>
    <circle cx="142" cy="105" r="6" fill="#FFFFFF" opacity="0.4"/>

    <text x="100" y="170"
          text-anchor="middle"
          font-family="system-ui, -apple-system, sans-serif"
          font-size="18"
          font-weight="600"
          letter-spacing="5"
          fill="#FFFFFF">CODINGAS</text>
</svg>